<?xml version="1.0" encoding="UTF-8" standalone="no"?>
<!-- Created with Inkscape (http://www.inkscape.org/) -->

<svg
   xmlns:dc="http://purl.org/dc/elements/1.1/"
   xmlns:cc="http://creativecommons.org/ns#"
   xmlns:rdf="http://www.w3.org/1999/02/22-rdf-syntax-ns#"
   xmlns:svg="http://www.w3.org/2000/svg"
   xmlns="http://www.w3.org/2000/svg"
   xmlns:sodipodi="http://sodipodi.sourceforge.net/DTD/sodipodi-0.dtd"
   xmlns:inkscape="http://www.inkscape.org/namespaces/inkscape"
   width="1400"
   height="400"
   viewBox="0 0 370.41666 105.83333"
   version="1.1"
   id="svg8"
   inkscape:version="0.92.5 (2060ec1f9f, 2020-04-08)"
   sodipodi:docname="heal-logo.svg">
  <defs
     id="defs2" />
  <sodipodi:namedview
     id="base"
     pagecolor="#ffffff"
     bordercolor="#666666"
     borderopacity="1.0"
     inkscape:pageopacity="0.0"
     inkscape:pageshadow="2"
     inkscape:zoom="1.4"
     inkscape:cx="712.37787"
     inkscape:cy="74.342791"
     inkscape:document-units="mm"
     inkscape:current-layer="layer1"
     showgrid="false"
     fit-margin-top="0"
     fit-margin-left="0"
     fit-margin-right="0"
     fit-margin-bottom="0"
     inkscape:window-width="2512"
     inkscape:window-height="1376"
     inkscape:window-x="48"
     inkscape:window-y="1107"
     inkscape:window-maximized="1"
     units="px" />
  <metadata
     id="metadata5">
    <rdf:RDF>
      <cc:Work
         rdf:about="">
        <dc:format>image/svg+xml</dc:format>
        <dc:type
           rdf:resource="http://purl.org/dc/dcmitype/StillImage" />
        <dc:title></dc:title>
      </cc:Work>
    </rdf:RDF>
  </metadata>
  <g
     inkscape:label="Layer 1"
     inkscape:groupmode="layer"
     id="layer1"
     transform="translate(41.605545,33.026936)">
    <path
       style="fill:#a37da2;fill-opacity:1;stroke:none;stroke-width:0.26458335;stroke-opacity:1"
       d="m 329.17505,58.93741 c -211.68183,11.288822 -105.84091,5.644411 0,0 z m -1.9e-4,3e-6 h -37.70313 -3.83645 v -6.429581 c 0,-4.647851 -0.0883,-6.517354 -0.3178,-6.746875 -0.23563,-0.235641 -2.87165,-0.317294 -10.22315,-0.317294 h -9.90534 l 0.1297,-20.376017 c 0.0931,-14.616849 0.0475,-20.4883458 -0.16174,-20.7739259 -0.2512,-0.34283 -1.48537,-0.3880687 -8.89042,-0.3276286 l -8.59896,0.07028 -0.0703,7.7390625 c -0.0386,4.256482 -0.10387,7.739063 -0.1452,7.739063 -0.0413,0 -1.43891,0.60004 -3.10524,1.33377 -3.27407,1.44168 -8.71683,2.978909 -12.05715,3.40496 -1.14668,0.146259 -2.45719,0.342042 -2.91248,0.435631 -0.49711,0.10219 -0.8996,0.05395 -1.00769,-0.120923 -0.10127,-0.163869 -0.93685,-0.290938 -1.90996,-0.290938 -1.30984,0 -1.91117,-0.1294 -2.4784,-0.5333 -0.71521,-0.50927 -0.84573,-0.516527 -2.89905,-0.160197 -1.95926,0.34 -2.22997,0.463717 -3.05098,1.393195 -0.5198,0.588481 -0.90573,1.312625 -0.91209,1.711524 -0.0178,1.114552 -2.01276,1.395735 -8.74778,1.234035 -4.24082,-0.10182 -5.55057,-0.05764 -5.55057,0.187068 0,0.69386 9.73301,0.892432 12.73979,0.259932 1.50343,-0.316251 2.0872,-0.338333 2.65824,-0.101803 0.40248,0.166711 0.8937,0.240718 1.0914,0.164848 0.19771,-0.0759 0.52055,-0.03818 0.71779,0.08372 0.19725,0.121899 0.54386,0.123399 0.76998,0.0031 0.22612,-0.120192 1.09979,-0.09909 1.94148,0.04651 1.25788,0.2177 1.50518,0.344541 1.38803,0.71365 -0.21576,0.679802 0.40136,1.305582 1.57975,1.601971 0.81883,0.205959 0.3515,0.237095 -2.06447,0.136427 -1.90528,-0.0794 -3.32176,-0.02342 -3.63389,0.143658 -0.28135,0.150572 -1.01962,0.334423 -1.64021,0.408763 -3.9829,0.477099 -12.43881,2.266116 -13.03021,2.756937 -0.36602,0.30377 -1.01917,-1.165749 -5.52576,-12.4318 -1.54259,-3.8563 -3.78865,-9.452248 -4.99143,-12.4354171 l -2.18694,-5.4239591 -8.90386,-0.069247 -8.90333,-0.069763 -0.84646,2.0541383 c -0.46543,1.1297097 -1.94797,4.6729939 -3.29489,7.8744559 -1.34692,3.20145 -3.08514,7.349357 -3.86281,9.217009 -1.37342,3.298381 -1.44845,3.413202 -2.61793,4.004924 -4.77539,2.416188 -10.75522,3.450545 -18.0051,3.115054 -1.1367,-0.0526 -7.94488,0.08246 -9.09298,0.18035 -0.12612,0.0108 -0.16899,0.250521 -0.0951,0.533302 0.0777,0.297011 -0.0613,0.691354 -0.32918,0.933794 -0.42061,0.380648 -0.67762,0.382384 -2.76365,0.0186 -3.31536,-0.578152 -4.98236,-1.03034 -10.47327,-2.84117 -2.69214,-0.887841 -5.04362,-1.652542 -5.22552,-1.699122 -0.1819,-0.0466 -0.33263,-0.355823 -0.33486,-0.687814 -0.01,-1.44232 0.39045,-1.392692 -11.69438,-1.460891 l -11.187965,-0.06305 0.01,-2.65307 0.01,-2.653067 12.217875,-0.0046 c 10.62858,-0.005 12.27006,-0.05843 12.62352,-0.411861 0.34506,-0.345091 0.4067,-1.472251 0.4067,-7.480682 0,-5.2431 -0.0856,-7.1906577 -0.33073,-7.5240877 C 121.6333,3.9310538 120.10767,3.9039218 100.44315,3.967642 l -21.166665,0.068729 -0.0682,16.506487 -0.0682,16.507002 -1.78387,-0.180866 c -1.56192,-0.15825 -1.96634,-0.321868 -3.24838,-1.314649 -0.80535,-0.623638 -2.0555,-1.474078 -2.77812,-1.889807 -0.72263,-0.41574 -1.59754,-0.971415 -1.94459,-1.235067 -0.34704,-0.26365 -0.98012,-0.479558 -1.40663,-0.479558 -0.42651,0 -1.01354,-0.12705 -1.30431,-0.28267 -0.71996,-0.38531 -1.3364,0.132234 -1.1312,0.949815 0.13696,0.545708 0.0649,0.602123 -0.72037,0.564822 -1.05257,-0.05 -1.33107,0.6365 -0.59015,1.455208 0.45325,0.50083 0.45463,0.54614 0.0232,0.787551 -0.63997,0.358148 -0.56986,1.202113 0.13798,1.663462 0.32742,0.213402 1.57803,0.762849 2.77916,1.220599 2.03488,0.77551 2.59233,1.31413 1.36012,1.31413 -0.76767,0 -1.8204,1.14836 -1.65003,1.799892 0.13189,0.504348 0.3067,0.529561 3.01739,0.43253 1.58267,-0.0566 3.67725,-0.230947 4.6545,-0.387056 0.97725,-0.15612 3.96136,-0.143209 3.18275,-0.108003 l 1.40663,0.175699 v 8.700762 8.700759 H 46.070355 12.997444 V 47.819746 36.703113 l 6.680728,0.0708 6.680733,0.07028 0.13229,8.73125 0.13229,8.73125 8.58139,0.07028 c 6.68892,0.0545 8.62777,-0.004 8.79326,-0.264583 0.11677,-0.183952 0.2143,-6.797413 0.21652,-14.696263 l 0.004,-14.361395 1.07384,0.603062 c 0.59058,0.331772 1.5679,1.138841 2.17145,1.79369 0.60354,0.654841 2.09863,2.05496 3.32279,3.11092 1.68042,1.449541 2.57812,2.022203 3.66386,2.337843 0.79094,0.229931 1.62626,0.345588 1.85622,0.257349 0.22996,-0.0882 0.82576,0.08015 1.32395,0.374137 0.49819,0.293939 1.14483,0.534334 1.43712,0.534334 0.29229,0 0.76962,0.127577 1.0604,0.283186 0.76559,0.409742 1.37776,-0.1666 1.18752,-1.117761 -0.0805,-0.402699 -0.0312,-0.803402 0.10956,-0.890384 0.14075,-0.087 0.25579,-0.467032 0.25579,-0.844394 0,-0.698259 -1.69332,-2.583457 -3.70416,-4.123777 l -0.92604,-0.709001 1.10587,-0.0031 c 1.11325,-0.003 2.0534,-0.580467 1.86501,-1.145667 -0.0527,-0.158154 -0.62364,-0.575692 -1.26864,-0.928112 -0.64501,-0.35242 -1.53025,-0.90664 -1.96681,-1.231451 -1.28487,-0.955979 -4.50445,-2.253826 -5.60017,-2.257226 -1.43337,-0.004 -3.3887,-0.574273 -5.31389,-1.548741 l -1.65365,-0.836642 v -6.986138 c 0,-3.8423111 -0.0719,-7.1745267 -0.16019,-7.4047168 -0.14181,-0.36955 -1.14012,-0.4180251 -8.53282,-0.414445 -4.60471,0.002 -8.69972,0.2118734 -8.69972,0.2118734 l -0.46668,18.7017014 -6.680732,0.0708 -6.680729,0.0708 V 4.1784816 L 12.402132,4.0332708 C 12.07471,3.9533708 8.1158803,3.9212573 3.6047351,3.9619578 l -8.2020833,0.073897 -0.13436,54.9010422 H -42.311325 v 1.588016 c 4.59149,-0.0072 39.1743518,0.03972 39.1743518,0.03972 l -0.0052,-55.0813214 7.2098963,0.07028 7.2098949,0.07028 c 0.0882,6.2618054 0.17639,12.5236114 0.264584,18.7854174 l 8.051706,0.07028 c 6.265377,0.0545 8.264607,-0.264582 8.264607,-0.264582 l 0.22053,-18.7316754 7.2099,0.07028 7.20989,0.07028 0.0672,23.6140624 0.0677,23.614063 h -7.27757 -7.27707 v -8.351944 c 0,-5.251111 -0.10168,-8.541771 -0.27389,-8.863541 -0.26124,-0.48813 -0.63299,-0.511599 -8.03775,-0.511599 -6.23576,0 -7.822395,0.07117 -8.063073,0.36122 -0.215875,0.260109 -0.28057,3.792194 -0.230995,12.633854 l 0.06925,12.272634 34.469728,0.06718 c 27.44618,0.05343 34.49117,-5.24e-4 34.5736,-0.264584 0.0569,-0.18244 0.1674,-12.535675 0.24546,-27.451555 l 0.14171,-27.1197905 19.722835,-0.085266 19.72284,-0.085266 v 6.2368295 6.236827 h -12.25042 c -9.175175,0 -12.329915,0.07949 -12.567715,0.317294 -0.44317,0.443161 -0.44317,7.918088 0,8.361247 0.23681,0.23682 3.12796,0.317293 11.377095,0.317293 h 11.05979 v 5.291667 5.291666 h -11.05979 c -8.249135,0 -11.140285,0.0805 -11.377095,0.317294 -0.33509,0.335082 -0.46034,7.457191 -0.15142,8.609811 l 0.15865,0.592728 12.706735,0.06873 12.70672,0.06873 0.1204,6.614067 c 0.0822,4.518531 0.21504,6.673146 0.41962,6.799585 0.25651,0.158531 33.25705,-0.02184 33.45739,-0.182935 0.0398,-0.032 1.00755,-2.307664 2.15025,-5.057055 1.14271,-2.749381 3.15116,-7.558514 4.4633,-10.687204 3.45354,-8.234698 7.73283,-18.428866 9.27385,-22.092708 0.73447,-1.74625 2.63028,-6.270625 4.21318,-10.054167 l 2.87786,-6.8791665 7.68015,-0.07028 7.68015,-0.069763 0.81804,2.0541386 c 0.83798,2.1055198 4.73834,11.7171509 9.04751,22.2952799 1.3338,3.274221 3.77516,9.286869 5.42551,13.361458 1.65035,4.074581 3.19086,7.850706 3.42304,8.391737 0.23217,0.54103 0.4222,1.047048 0.4222,1.124479 0,0.0774 -3.44023,0.141076 -7.64449,0.141076 h -7.64398 l -0.99994,-2.844271 c -0.55002,-1.564349 -1.0958,-3.112162 -1.21285,-3.439584 l -0.2129,-0.595312 h -9.65729 -9.65678 l -0.36587,0.727604 c -0.20114,0.40018 -1.40799,3.497495 -2.68201,6.882786 -1.89657,5.03954 -2.25689,6.226183 -1.98902,6.548954 0.28765,0.346598 5.17259,0.386527 40.44456,0.327628 l 40.11743,-0.06718 0.1323,-27.384374 0.13229,-27.3843754 7.14375,5.168e-4 7.14375,5.167e-4 0.13591,20.6369849 c 0.075,11.35031 0.16431,20.666747 0.19844,20.703127 0.0342,0.0364 4.58478,0.06615 10.11206,0.06615 h 10.04951 l 0.0708,6.680729 0.0708,6.680729 4.56406,0.06925 38.43073,0.06925 z M 185.23036,18.852522 c -0.57614,0 -0.76461,0.35432 -2.0407,3.836459 -4.48527,12.239241 -4.49577,12.276399 -3.57085,12.518099 0.25466,0.0666 2.79219,0.134532 5.63842,0.151413 4.02549,0.0239 5.28591,-0.0503 5.67511,-0.334865 0.47985,-0.350869 0.38603,-0.689639 -2.28359,-8.268229 -2.60341,-7.39067 -2.82473,-7.902877 -3.41839,-7.902877 z m -141.012085,0.65319 1.31879,0.668177 c 1.59277,0.80713 3.98312,1.457274 5.35729,1.457274 1.08831,0 4.4502,1.548024 6.34948,2.923853 0.59247,0.42918 1.23758,0.780314 1.43403,0.780314 0.49294,0 0.45001,0.510411 -0.0594,0.705901 -0.68193,0.26168 -2.40916,-0.397397 -3.25304,-1.241267 -0.87226,-0.87227 -1.09295,-0.959506 -1.09295,-0.432017 0,0.330161 0.73806,1.093325 5.29166,5.472536 0.94589,0.909659 1.58494,1.702538 1.41956,1.761649 -0.16539,0.0591 -1.34605,-0.672206 -2.62362,-1.624708 -2.13131,-1.58903 -3.03841,-2.048759 -3.02358,-1.53324 0.003,0.109141 0.64028,0.65254 1.41541,1.20768 1.871,1.33998 4.25998,3.777007 3.91294,3.991486 -0.15071,0.0931 -0.48973,-0.136149 -0.75344,-0.509529 -0.49853,-0.705829 -4.57592,-3.565158 -5.08393,-3.565158 -0.65693,0 -0.17456,0.475793 1.95854,1.930633 1.23691,0.843611 2.24896,1.65879 2.24896,1.811258 0,0.302231 -1.235,-0.381722 -4.08864,-2.263944 -1.93903,-1.278959 -2.13926,-1.36018 -2.38074,-0.969449 -0.0828,0.133998 0.53535,0.629375 1.37356,1.101225 1.82714,1.028528 1.78441,0.99631 1.58595,1.194758 -0.62297,0.622972 -4.26742,-1.963812 -7.47396,-5.305103 -0.87522,-0.912 -2.09562,-1.915387 -2.71198,-2.229836 l -1.12086,-0.572059 v -2.380218 z m 205.316685,0.82114 v 3.509862 3.509865 l -4.29948,0.454753 c -4.61433,0.487719 -8.38648,0.539088 -10.16992,0.139009 -0.93204,-0.209092 -1.12122,-0.362135 -1.19063,-0.963766 -0.07,-0.60674 -0.25331,-0.751144 -1.20716,-0.951365 -0.61846,-0.12981 -1.12448,-0.323067 -1.12448,-0.429948 0,-0.106868 1.14133,-0.338143 2.53577,-0.513662 3.42049,-0.43054 9.4058,-1.964449 11.35486,-2.909901 0.87313,-0.42354 2.15305,-1.011912 2.84427,-1.307412 z m -64.37798,2.128552 c 0.15282,-0.02337 0.32905,0.318556 0.55655,1.04748 0.30236,0.96882 2.9311,8.424392 3.37447,9.570993 0.16585,0.428929 -0.12759,0.463021 -3.97908,0.463021 -3.85454,0 -4.14372,-0.03379 -3.9703,-0.463021 0.38153,-0.944372 3.63034,-9.740078 3.76256,-10.186459 0.0808,-0.272746 0.1641,-0.417994 0.2558,-0.432014 z m 39.49784,1.630908 c 0.20689,-0.0054 0.39722,0.01343 0.55191,0.06253 0.856,0.27169 0.58002,0.70367 -0.39584,0.619598 -0.50152,-0.0432 -0.97329,-0.01732 -1.04852,0.05788 -0.0752,0.0752 0.0392,0.721555 0.25425,1.436086 0.42557,1.41409 0.41352,1.805723 -0.0465,1.512052 -0.42066,-0.268528 -1.42265,-2.209424 -1.42265,-2.755903 0,-0.432049 1.21088,-0.908968 2.10736,-0.932243 z m -3.17344,0.455268 c 0.15007,0 0.27282,0.267893 0.27336,0.595313 5.3e-4,0.32743 0.23867,0.984951 0.52917,1.46141 0.62582,1.02644 0.63999,1.118277 0.16847,1.118277 -0.19806,0 -0.63451,-0.517451 -0.96997,-1.1498 h -5.2e-4 c -0.58414,-1.101111 -0.58415,-2.0252 -5.1e-4,-2.0252 z m 7.6972,0.39791 c 0.50488,0.01838 0.77721,0.150108 0.77721,0.393258 0,0.537721 -4.87299,1.259012 -5.17746,0.76636 -0.17894,-0.289528 0.0767,-0.389718 2.22829,-0.873847 0.93014,-0.209291 1.66708,-0.304152 2.17196,-0.285771 z m 1.68775,0.936892 c 0.0975,0.0088 0.14779,0.07234 0.14779,0.19172 0,0.31705 -2.95008,1.842569 -3.83645,1.983859 -0.43656,0.0696 -1.06164,0.07372 -1.38907,0.0098 v -5.16e-4 c -0.58608,-0.115199 -0.8101,-0.709853 -0.37,-0.981852 0.12382,-0.0765 1.0693,-0.190858 2.10116,-0.254249 1.12118,-0.0689 2.11881,-0.285351 2.47944,-0.537951 0.4107,-0.287668 0.70456,-0.425463 0.86713,-0.410829 z m -10.6903,0.138493 c 0.14086,0.02265 0.39182,0.341824 0.59945,0.777214 0.48335,1.013621 0.22029,1.430263 -0.44132,0.699183 -0.46467,-0.513451 -0.57018,-1.245852 -0.21136,-1.46761 0.0152,-0.0094 0.0331,-0.01202 0.0532,-0.0088 z m 11.34866,0.967902 c 0.0358,-0.0025 0.0655,-5e-5 0.0873,0.0072 0.42906,0.14302 -0.78704,0.910333 -1.78852,1.128611 -0.72291,0.157563 -0.69256,0.109728 0.33848,-0.531233 0.5448,-0.338685 1.11225,-0.586856 1.36271,-0.604612 z m -64.68494,0.501777 c 0.12064,-0.01171 0.15482,0.07562 0.0956,0.256315 -0.0672,0.205089 -0.82767,0.633627 -1.68982,0.952397 -1.76136,0.65125 -1.96649,0.694176 -1.96009,0.412377 0.002,-0.109138 0.6871,-0.47216 1.52136,-0.806667 0.83426,-0.33451 1.68185,-0.680593 1.8836,-0.769464 0.0593,-0.0261 0.10914,-0.04105 0.14935,-0.04496 z m 65.74534,0.404627 2.45566,0.83044 c 1.35061,0.45689 3.88442,1.126535 5.63067,1.487765 2.90641,0.601218 8.17772,2.286447 8.67336,2.772955 0.11353,0.11144 0.17306,1.774026 0.13229,3.694867 l -0.0739,3.492809 -4.36613,-2.952792 c -7.44263,-5.03373 -10.70816,-6.28374 -13.05346,-4.997109 -0.60588,0.33238 -1.28034,0.753142 -1.49862,0.935342 -1.25985,1.0516 -6.37452,0.955601 -8.01346,-0.150379 -0.46746,-0.315449 -0.61196,-0.489143 -0.32092,-0.386021 2.30406,0.816329 8.06979,0.923848 8.06979,0.150378 0,-0.0986 -1.39898,-0.189685 -3.10885,-0.202054 -1.70987,-0.0124 -3.46166,-0.162351 -3.8933,-0.33383 -1.24279,-0.493721 -0.37796,-0.735918 1.77663,-0.497128 2.94908,0.326829 6.01927,-0.292743 6.01927,-1.214914 0,-0.314518 -0.43017,-0.415576 -2.02881,-0.476457 -2.33993,-0.0891 -2.89731,-0.574659 -0.95705,-0.83354 0.69651,-0.0929 2.00649,-0.427977 2.91145,-0.744657 z m -112.47324,0.11317 c 0.28547,0.02295 1.31747,0.323842 2.49339,0.732772 6.95753,2.419501 12.85111,4.00854 14.86524,4.00854 0.38322,0 1.05951,0.267894 1.50327,0.595313 0.72507,0.534972 1.09928,0.593426 3.69332,0.577226 1.58763,-0.01 2.88664,0.06108 2.88664,0.157614 0,0.513599 -1.21056,1.183389 -2.13889,1.183389 -1.14756,0 -1.39982,0.380606 -0.5426,0.818555 0.53609,0.273891 0.54125,0.311102 0.10232,0.697632 -0.84825,0.746961 -3.094,1.719284 -4.3,1.861902 -0.8811,0.104195 -1.55364,-0.01392 -2.58795,-0.453718 h -5.2e-4 c -1.193,-0.507299 -2.12253,-0.626798 -6.34948,-0.815454 -2.72371,-0.12156 -6.06415,-0.228925 -7.42281,-0.238747 l -2.47013,-0.01809 0.0346,-4.487579 c 0.019,-2.468113 0.0901,-4.543584 0.15865,-4.612124 0.009,-0.0086 0.0341,-0.01051 0.0749,-0.0072 z m 128.27485,0.243396 h 1.14826 v 1.852083 c 0,1.31458 -0.096,1.846884 -0.33073,1.834515 -0.1819,-0.01 -1.41795,-0.41846 -2.74712,-0.908989 -1.32915,-0.49054 -3.17462,-1.034058 -4.10104,-1.207678 -3.0348,-0.568729 -3.18983,-0.687022 -1.15549,-0.88315 1.01864,-0.0982 2.79406,-0.292803 3.94498,-0.432532 1.15093,-0.13974 3.87286,-0.254249 3.24114,-0.254249 z m -82.36912,0.884184 c 0.3239,-0.01591 0.12167,0.537348 -1.03611,3.255616 -2.46216,5.780688 -1.93825,5.120616 -4.06436,5.120616 -3.74492,0 -6.19882,0.932958 -8.32352,3.16415 -1.58499,1.66443 -2.26055,2.027544 -4.42454,2.378665 -2.04027,0.33106 -2.63713,0.339865 -3.10162,0.04548 -0.21859,-0.138559 0.57035,-0.296891 2.05983,-0.413411 1.95384,-0.15285 2.54608,-0.302877 3.10834,-0.786516 0.44013,-0.378571 0.61859,-0.721061 0.48679,-0.93431 -0.15433,-0.249711 -0.35308,-0.164714 -0.76998,0.328144 -0.44758,0.529151 -0.89883,0.69927 -2.21589,0.83561 -1.92585,0.199358 -2.28725,-0.229219 -0.4284,-0.507979 0.89603,-0.134361 1.42901,-0.406876 1.98438,-1.014926 1.01044,-1.106281 1.02481,-1.861013 0.017,-0.895554 -0.57345,0.54941 -1.00934,0.712838 -1.91822,0.719336 -1.05228,0.008 -1.12592,0.0465 -0.69867,0.37052 0.42619,0.323162 0.27859,0.395796 -1.37614,0.674894 -1.01979,0.172011 -2.04481,0.273174 -2.2779,0.224793 -0.40185,-0.0834 0.66232,-0.947116 3.28869,-2.669088 0.95645,-0.627099 1.35026,-1.25522 0.78703,-1.25522 -0.18465,0 -0.60179,0.249933 -0.92708,0.555522 -0.37339,0.350789 -0.94054,0.555521 -1.5384,0.555521 -0.93279,0 -1.26292,0.303959 -0.6165,0.567407 0.49629,0.202272 -0.79903,1.175113 -2.01538,1.513605 -0.92626,0.25777 -1.138,0.213828 -2.22571,-0.461471 -0.66112,-0.41044 -1.20021,-0.865272 -1.19786,-1.010793 0.002,-0.145518 0.40866,-0.333147 0.90279,-0.417028 1.45394,-0.24683 3.60791,-1.493843 4.94492,-2.862874 2.07955,-2.129361 3.49384,-3.686143 3.49384,-3.845242 0,-0.322382 -0.84887,-0.127109 -1.53169,0.352433 -0.92059,0.646528 -5.02226,0.951725 -6.40581,0.476456 -1.53872,-0.528579 -1.18799,-1.086252 0.80719,-1.283642 0.9531,-0.0943 2.57317,-0.421714 3.60029,-0.727604 2.24144,-0.66753 3.02286,-0.68354 6.37739,-0.13281 3.43188,0.56343 6.42685,0.344397 10.93318,-0.799433 1.95233,-0.49556 3.81179,-0.983255 4.13205,-1.083657 0.0665,-0.02084 0.12375,-0.03493 0.17002,-0.03721 z m -6.72724,1.000456 c 0.0919,0.0038 0.17101,0.0284 0.21497,0.07235 0.0879,0.0879 -0.0684,0.15049 -0.34726,0.139009 -0.30823,-0.0127 -0.37126,-0.07575 -0.1602,-0.160197 0.0955,-0.0382 0.20058,-0.05495 0.29249,-0.05116 z m -1.5658,0.266134 c 0.11989,0 0.23978,0.01859 0.33073,0.05529 0.18191,0.0734 0.0331,0.133326 -0.33073,0.133326 -0.36381,0 -0.51263,-0.05998 -0.33073,-0.133326 0.0909,-0.0367 0.21085,-0.05529 0.33073,-0.05529 z m -17.94929,0.223242 c 0.0482,-0.0028 0.15007,0.02989 0.31006,0.08992 0.26656,0.10001 0.98094,0.196215 1.5875,0.213424 1.04432,0.0296 1.06066,0.04177 0.30902,0.23306 -1.27427,0.324242 -1.63257,0.291881 -2.01796,-0.181901 -0.19978,-0.245612 -0.26895,-0.349758 -0.18862,-0.354499 z m 15.83263,0.04134 c 0.11989,0 0.23978,0.0186 0.33073,0.05529 0.1819,0.0734 0.0331,0.133326 -0.33073,0.133326 -0.3638,0 -0.51263,-0.05996 -0.33073,-0.133326 0.0909,-0.0367 0.21084,-0.05529 0.33073,-0.05529 z m -89.370275,1.685169 c 0.16503,-0.02436 0.92132,0.388686 1.75545,0.964281 1.68594,1.163392 2.61085,1.199232 1.22835,0.04754 -1.27183,-1.059521 1.89693,0.908606 5.07669,3.153297 0.63709,0.449738 1.52501,0.782518 2.34043,0.876948 2.64855,0.306689 2.54011,0.22475 2.45152,1.8557 l -0.0791,1.456243 -2.91041,0.139525 c -1.60073,0.0767 -3.74121,0.133945 -4.75682,0.127125 -1.0156,-0.007 -2.22772,0.09295 -2.69389,0.221691 -0.46617,0.12872 -0.9153,0.166286 -0.99787,0.08372 -0.34632,-0.34631 -0.0786,-0.5725 1.16944,-0.98702 0.72589,-0.24111 1.37747,-0.531164 1.44745,-0.644406 0.26007,-0.420799 -1.10742,-1.32743 -3.03185,-2.01073 -1.09141,-0.38753 -2.21879,-0.931326 -2.50579,-1.208193 -0.65428,-0.631172 -0.42832,-0.627732 1.71204,0.02584 1.7817,0.544031 2.92249,0.67433 2.89491,0.330729 -0.009,-0.109138 -1.08032,-0.722386 -2.38125,-1.362707 -1.30093,-0.64031 -2.36575,-1.326592 -2.36575,-1.524971 0,-0.292931 0.18642,-0.280331 0.99219,0.06563 2.67996,1.150739 4.28768,1.666552 4.43746,1.424202 0.0884,-0.143061 -0.35304,-0.491019 -0.98082,-0.773081 -1.28503,-0.577358 -3.07532,-2.002406 -2.82722,-2.250506 0.006,-0.0056 0.0138,-0.0092 0.0248,-0.01085 z m 153.744125,0.01447 c 0.1309,-0.0027 0.21543,0.0063 0.25062,0.02791 0.10914,0.067 0.19844,0.293637 0.19844,0.503328 0,0.20969 0.18365,0.380854 0.40773,0.380854 0.22408,0 0.84916,0.224221 1.38906,0.498163 0.65423,0.331938 1.87958,0.561885 3.67368,0.688845 2.99197,0.21172 3.8984,0.02382 5.93349,-1.228349 1.57926,-0.97173 2.71223,-0.962972 4.99452,0.03876 2.36734,1.039029 4.65187,2.406364 9.00152,5.386234 l 3.57188,2.44688 0.0698,8.917283 0.0697,8.916768 h -38.63278 c -21.24797,0 -38.63227,-0.09057 -38.63227,-0.201538 h -5.1e-4 c 0,-0.160819 2.94624,-7.987411 3.9827,-10.580233 l 0.23771,-0.595312 8.53953,10e-4 8.53901,5.16e-4 1.19063,3.372922 1.19062,3.372403 9.02684,0.06977 c 7.76039,0.0598 9.0733,0.01368 9.35654,-0.327631 0.27184,-0.327538 -0.29425,-1.936231 -3.23495,-9.197369 -1.96033,-4.84039 -3.64258,-9.049803 -3.73827,-9.353952 -0.16391,-0.520941 0.0757,-0.609219 4.12998,-1.525489 4.38373,-0.990717 7.56842,-1.592601 8.48476,-1.611786 z m -97.50775,5.421889 c 1.41605,0.007 4.77717,0.112802 7.46931,0.236162 4.34686,0.199181 5.04688,0.295693 6.25027,0.861964 0.74529,0.350708 1.70821,0.93485 2.13992,1.298112 0.43171,0.36326 2.17783,1.347936 3.88038,2.188496 3.08403,1.522611 3.10225,1.52772 4.87154,1.352889 3.10125,-0.30643 3.72097,-0.570841 5.60586,-2.39055 2.37327,-2.291202 4.04211,-3.028963 7.28689,-3.222543 1.37995,-0.0823 2.50889,-0.07851 2.50889,0.0088 0,0.302371 -7.96288,19.468695 -8.43049,20.291785 -0.19499,0.34323 -2.30798,0.414755 -15.63109,0.529166 -8.47299,0.0728 -15.45529,0.08292 -15.51585,0.02222 -0.0606,-0.0606 -0.11007,-2.983299 -0.11007,-6.495209 0,-4.613542 -0.0879,-6.473549 -0.31729,-6.702951 -0.2381,-0.238099 -3.48248,-0.31781 -12.97285,-0.31781 H 96.853825 l 0.0744,-3.108854 0.0744,-3.108854 11.283045,-0.06873 11.28303,-0.06924 0.16537,-0.65836 c 0.16225,-0.646438 0.21292,-0.658241 2.73988,-0.646472 z"
       id="path2058"
       inkscape:connector-curvature="0"
       sodipodi:nodetypes="cccccscsccccccsccccsscccsscsccccsccccccccccccccccccccccccccccscccccccccscscccccscccccccccccccccccccccccccscccscccccccccscccccccccccccccccccccccccccscscccccccccccsccscccscccccccccscccccccscsscccccccccccccccccsccccccssccccsccsssccsscccsccscsccccccccccccccscssccccccscccccccccsccsccsccscscsccscccccccccccccccccccccccccccccccccccccscscccscccccssccssccccccccccccccsccccccccsscccccccccccccccscsccccccssccssccccccccccscscscccccccscscsccccccccccccccccccsccccccccssccccccccsccccccccccccccccsccccscscccscscccccccc" />
  </g>
</svg>
