<?xml version="1.0" standalone="no"?>
<!DOCTYPE svg PUBLIC "-//W3C//DTD SVG 20010904//EN"
 "http://www.w3.org/TR/2001/REC-SVG-20010904/DTD/svg10.dtd">
<svg version="1.0" xmlns="http://www.w3.org/2000/svg"
 width="260.000000pt" height="260.000000pt" viewBox="0 0 260.000000 260.000000"
 preserveAspectRatio="xMidYMid meet">
<metadata>
Created by potrace 1.14, written by Peter Selinger 2001-2017
</metadata>
<g transform="translate(0.000000,260.000000) scale(0.100000,-0.100000)"
fill="#000000" stroke="none">
<path d="M0 1437 l0 -1162 179 0 c99 0 182 3 185 6 3 3 7 488 8 1079 l3 1074
333 1 c182 0 332 -2 332 -5 0 -3 2 -165 3 -360 l2 -355 252 -1 c169 0 253 3
256 10 2 6 3 167 2 358 -1 307 0 347 14 350 9 2 159 3 335 2 l318 0 0 -970
c-1 -533 -1 -972 -1 -977 -1 -4 -151 -6 -333 -5 l-333 3 0 333 0 333 -257 -1
-257 -1 2 -437 2 -437 777 0 778 0 0 1162 0 1163 -1300 0 -1300 0 0 -1163z"/>
<path d="M429 2361 c-1 -9 -2 -493 -3 -1076 l-1 -1060 -210 -1 -210 0 -3 -112
-3 -112 1301 0 1301 0 -3 112 -3 111 -802 0 -803 0 0 488 0 489 308 0 309 0
-1 -312 c-1 -172 0 -323 2 -335 l4 -22 279 0 279 1 0 924 0 924 -282 0 -283 0
0 -360 1 -360 -308 0 -308 0 0 361 0 360 -280 -2 c-245 -3 -280 -5 -281 -18z"/>
</g>
</svg>
